<svg xmlns="http://www.w3.org/2000/svg" width="16" height="16" viewBox="0 0 16 16">
    <g fill="none" fill-rule="evenodd" transform="translate(-405 -338)">
        <rect width="247" height="511" x="395.5" y="61.5" stroke="#999" rx="1"/>
        <path fill="#00A0E9" d="M420.531 348.705l-4.48-1.554s.387-.565.778-1.674c.391-1.108.35-1.717.35-1.717l-3.145-.026v-1.085l3.689-.026v-.486h-3.687v-1.556h-1.845v1.556h-3.688v.486l3.688-.026v1.485h-2.95v.778h6.035s-.063.25-.284.864c-.221.613-.449.99-.449.99s-2.706-1.016-4.133-1.016c-1.426 0-3.16.569-3.327 2.28-.165 1.708.81 2.625 2.182 2.966 1.373.342 2.642-.01 3.748-.565 1.104-.556 2.188-1.822 2.188-1.822l4.277 2.138a8 8 0 1 1 1.053-1.99zm-10.5 1.166c-2.025 0-2.45-1.082-2.45-1.86s.42-1.624 2.143-1.746c1.723-.122 4.05 1.328 4.05 1.328s-1.716 2.278-3.742 2.278z"/>
    </g>
</svg>
