<svg xmlns="http://www.w3.org/2000/svg" width="16" height="16" viewBox="0 0 16 16">
    <g fill="none" fill-rule="evenodd" transform="translate(-406 -120)">
        <rect width="247" height="511" x="395.5" y="61.5" stroke="#999" rx="1"/>
        <path fill="#F7931A" d="M412.033 135.815a8.049 8.049 0 0 1-5.86-9.758 8.048 8.048 0 1 1 15.618 3.895 8.05 8.05 0 0 1-9.758 5.863z"/>
        <path fill="#FFF" d="M417.53 126.857c.16-1.071-.655-1.647-1.77-2.031l.361-1.451-.883-.22-.353 1.412c-.232-.057-.47-.112-.707-.166l.354-1.422-.882-.22-.363 1.45c-.192-.044-.38-.087-.564-.132l.001-.005-1.218-.304-.235.943s.656.15.642.16c.357.09.422.326.411.514l-.412 1.653a.732.732 0 0 1 .092.03l-.093-.024-.578 2.316c-.044.109-.155.272-.405.21.009.013-.642-.16-.642-.16l-.438 1.011 1.15.287c.213.053.423.11.629.162l-.366 1.468.883.22.362-1.452c.24.065.475.126.704.183l-.361 1.445.883.22.366-1.465c1.506.285 2.639.17 3.116-1.192.384-1.097-.02-1.73-.812-2.143.577-.133 1.012-.512 1.128-1.297zm-2.018 2.83c-.273 1.098-2.12.505-2.72.356l.486-1.945c.599.15 2.519.446 2.234 1.59zm.273-2.846c-.25.998-1.787.491-2.285.367l.44-1.764c.498.125 2.104.357 1.845 1.397z"/>
    </g>
</svg>
