<svg xmlns="http://www.w3.org/2000/svg" width="16" height="16" viewBox="0 0 16 16">
    <g fill="none" fill-rule="evenodd" transform="translate(-405 -290)">
        <rect width="247" height="511" x="395.5" y="61.5" stroke="#999" rx="1"/>
        <g fill="#00985F">
            <path d="M413.988 290.047v8.235a.643.643 0 0 1-.659.66h-.988a.101.101 0 0 0-.094.093v6.918c.235 0 .47.047.753.047 4.424 0 8-3.576 8-8 0-4.094-3.059-7.482-7.012-7.953zm-.188 12.33a.994.994 0 0 1-.988-.989c0-.564.47-.988.988-.988.565 0 .988.47.988.988.047.518-.423.988-.988.988zm2.353 0a.994.994 0 0 1-.988-.989c0-.564.47-.988.988-.988.565 0 .988.47.988.988a.994.994 0 0 1-.988.988zm2.353 0a.994.994 0 0 1-.988-.989c0-.564.47-.988.988-.988.565 0 .988.47.988.988a.994.994 0 0 1-.988.988z"/>
            <path d="M413 290c-4.424 0-8 3.576-8 8 0 3.859 2.682 7.059 6.306 7.812v-7.2c0-.33.282-.612.612-.66h.988a.101.101 0 0 0 .094-.093V290zm-1.553 6.588a.994.994 0 0 1-.988-.988c0-.565.47-.988.988-.988.565 0 .988.47.988.988a.994.994 0 0 1-.988.988z"/>
        </g>
    </g>
</svg>
