<?xml version="1.0" standalone="no"?>
<!DOCTYPE svg PUBLIC "-//W3C//DTD SVG 20010904//EN"
 "http://www.w3.org/TR/2001/REC-SVG-20010904/DTD/svg10.dtd">
<svg version="1.0" xmlns="http://www.w3.org/2000/svg"
 width="500.000000pt" height="500.000000pt" viewBox="0 0 500.000000 500.000000"
 preserveAspectRatio="xMidYMid meet">
<metadata>
Created by potrace 1.15, written by Peter Selinger 2001-2017
</metadata>
<g transform="translate(0.000000,500.000000) scale(0.100000,-0.100000)"
fill="#333333" stroke="none">
<path d="M1413 4377 l-1073 -622 3 -1258 2 -1258 1075 -620 c591 -340 1081
-619 1089 -619 7 0 496 280 1087 623 l1074 622 -3 1258 -2 1259 -1075 619
c-591 340 -1082 619 -1090 618 -8 0 -498 -280 -1087 -622z m2051 -227 l946
-545 0 -1080 c0 -594 3 -1089 6 -1100 4 -17 -116 -90 -943 -569 -521 -303
-954 -550 -963 -550 -9 -1 -442 244 -963 544 l-947 545 0 1071 c0 589 -3 1084
-6 1100 -5 29 -4 29 948 582 524 304 958 551 964 550 6 -2 437 -248 958 -548z"/>
<path d="M1040 3511 c0 -5 7 -14 15 -21 8 -6 17 -22 21 -33 3 -12 16 -35 28
-52 13 -16 35 -56 50 -87 16 -32 32 -58 36 -58 4 0 15 -18 25 -39 l18 -40 386
-3 c319 -3 393 -6 426 -19 77 -29 162 -118 190 -199 28 -80 14 -230 -26 -266
-10 -9 -19 -23 -19 -30 0 -20 -103 -103 -150 -119 -32 -11 -88 -15 -231 -15
-209 0 -203 3 -155 -65 12 -16 35 -55 50 -85 16 -30 32 -57 36 -60 4 -3 22
-34 41 -70 18 -36 39 -70 45 -77 6 -6 23 -37 39 -70 15 -32 36 -67 46 -78 10
-11 25 -37 33 -57 9 -20 20 -39 25 -42 4 -3 21 -32 37 -63 15 -32 33 -65 40
-73 7 -8 27 -42 45 -75 17 -33 37 -66 43 -74 6 -7 25 -41 42 -75 l31 -61 191
-3 c106 -1 192 -1 192 2 0 2 -16 30 -35 62 -19 33 -49 88 -67 124 -18 36 -36
66 -40 68 -4 2 -22 34 -40 70 -18 37 -40 78 -50 92 -20 28 -64 108 -102 187
-14 28 -29 54 -35 57 -5 4 -16 20 -25 36 l-15 30 42 21 c23 12 44 25 47 28 3
4 22 17 42 29 48 30 157 147 187 203 78 143 94 206 93 359 0 96 -5 128 -27
194 -14 43 -34 91 -43 105 -10 14 -24 39 -32 55 -19 36 -137 153 -186 182 -20
12 -40 27 -43 32 -3 6 -45 26 -93 46 l-87 36 -520 0 c-292 0 -521 -4 -521 -9z"/>
<path d="M2750 2490 l0 -990 670 0 c369 0 670 4 670 8 0 13 -63 126 -74 134
-6 4 -7 8 -3 8 4 0 -3 15 -17 33 -15 19 -26 39 -26 45 0 6 -11 23 -24 39 -13
15 -26 38 -30 51 l-7 22 -405 0 -404 0 0 549 0 548 -25 37 c-14 21 -35 56 -46
79 -12 23 -26 45 -31 48 -5 3 -21 30 -36 60 -15 30 -35 65 -45 79 -29 40 -95
151 -118 198 -50 100 -49 117 -49 -948z"/>
</g>
</svg>
