<svg xmlns="http://www.w3.org/2000/svg" width="16" height="16" viewBox="0 0 16 16">
    <g fill="none" fill-rule="evenodd" transform="translate(-405 -314)">
        <rect width="247" height="511" x="395.5" y="61.5" stroke="#999" rx="1"/>
        <g transform="translate(405 314)">
            <circle cx="8" cy="8" r="8" fill="#4A4A4A"/>
            <path fill="#FFF" d="M12.528 8.591c.26-.11.488-.262.683-.457.195-.195.35-.422.465-.682.115-.26.172-.54.172-.84 0-.3-.057-.58-.172-.84a2.233 2.233 0 0 0-1.148-1.147 2.053 2.053 0 0 0-.84-.172c-.29 0-.564.054-.824.164a2.1 2.1 0 0 0-1.132 1.125c-.115.26-.178.535-.188.825L8.15 8.53c-.315 0-.6.08-.87.24L4.746 7.257a1.597 1.597 0 0 0-.413-.953 1.607 1.607 0 0 0-.937-.517c-.23-.03-.45-.02-.66.03-.21.05-.4.138-.57.262-.17.125-.312.278-.427.458-.115.18-.187.38-.217.6-.04.22-.033.435.022.644.055.21.143.4.263.57.12.17.27.313.45.428.18.115.38.192.6.232.16.03.314.033.464.008.15-.025.295-.063.435-.113l2.73 1.53c.05.41.23.752.54 1.027.309.275.679.412 1.109.412.23 0 .445-.045.645-.135a1.751 1.751 0 0 0 .884-.884c.09-.2.135-.415.135-.645l1.875-1.455c.315 0 .594-.055.854-.165z"/>
            <path fill="#4A4A4A" d="M2.302 7.392a.794.794 0 0 0 .48.735l.75.404a1.185 1.185 0 0 1-1.305-.27c-.24-.24-.36-.53-.36-.87 0-.34.12-.627.36-.862s.53-.352.87-.352c.29 0 .547.092.772.277.225.185.367.423.427.713l-.75-.42a.817.817 0 0 0-.45-.135.78.78 0 0 0-.562.225.742.742 0 0 0-.232.555zM8.135 8.966c.34 0 .627.12.862.36s.352.53.352.87c0 .34-.117.627-.352.862a1.173 1.173 0 0 1-.862.352c-.3 0-.563-.092-.787-.277a1.145 1.145 0 0 1-.413-.712l.75.42c.12.09.27.135.45.135.22 0 .405-.075.555-.225a.754.754 0 0 0 .225-.555.794.794 0 0 0-.48-.735L7.7 9.056c.13-.06.275-.09.435-.09z"/>
            <path fill="#FFF" d="M11.689 5.652c.26 0 .485.095.674.285.19.19.285.415.285.675 0 .26-.095.482-.285.667a.935.935 0 0 1-.674.278.91.91 0 0 1-.668-.278.91.91 0 0 1-.277-.667c0-.26.092-.485.277-.675a.898.898 0 0 1 .668-.285z"/>
            <path fill="#4A4A4A" d="M11.689 8.066c.41 0 .757-.14 1.042-.42.285-.28.427-.624.427-1.034 0-.41-.142-.757-.427-1.042a1.418 1.418 0 0 0-1.042-.428c-.2 0-.388.038-.563.113a1.47 1.47 0 0 0-.892 1.357c0 .2.038.39.113.57.075.18.18.335.314.465.135.13.29.232.465.307.175.075.363.112.563.112z"/>
        </g>
    </g>
</svg>
