<?xml version="1.0" encoding="UTF-8"?>
<svg width="32px" height="32px" viewBox="0 0 32 32" version="1.1" xmlns="http://www.w3.org/2000/svg" xmlns:xlink="http://www.w3.org/1999/xlink">
    <!-- Generator: Sketch 52.5 (67469) - http://www.bohemiancoding.com/sketch -->
    <title>IconPay/IconAlpha</title>
    <desc>Created with Sketch.</desc>
    <g id="IconPay/IconAlpha" stroke="none" stroke-width="1" fill="none" fill-rule="evenodd">
        <g id="g132" transform="translate(16.000000, 16.000000) scale(1, -1) translate(-16.000000, -16.000000) translate(6.000000, 0.000000)" fill="#EE2A23">
            <path d="M10.1282408,31.2822927 C12.2110594,31.2822927 12.8655258,29.7646637 13.4146219,28.2494134 C13.6452657,27.6059673 19.0577843,12.5486139 19.2205228,12.0966554 C19.2638417,11.9705828 19.2345722,11.7636333 19.0437349,11.6887034 C18.8517269,11.6149628 16.039512,10.5040964 15.8837981,10.4446282 C15.7280843,10.3839706 15.553638,10.4719836 15.4974405,10.6301691 C15.4389015,10.7859758 14.2716333,14.0686216 14.1405058,14.4349458 L6.11831724,14.4349458 C5.99187294,14.0686216 4.81055533,10.7788396 4.7578702,10.6301691 C4.70401429,10.4791198 4.53659267,10.3768344 4.37034182,10.4446282 C4.20409098,10.5112326 1.38133898,11.622099 1.21274658,11.6887034 C1.05117885,11.7529291 0.977419677,11.9396593 1.03361715,12.0966554 C1.23264985,12.6604141 6.56321387,27.4763265 6.83483497,28.2494134 C7.36402779,29.7420657 8.04073897,31.2822927 10.1282408,31.2822927 L10.1282408,31.2822927 Z M0.60511145,4.33962071 C0.436519045,4.33962071 0.301879277,4.19689699 0.301879277,4.02324978 L0.301879277,0.503920498 C0.301879277,0.330273295 0.436519045,0.189928294 0.60511145,0.189928294 L19.6431746,0.189928294 C19.8152794,0.189928294 19.9499191,0.330273295 19.9499191,0.503920498 L19.9499191,4.02324978 C19.9499191,4.19689699 19.8152794,4.33962071 19.6431746,4.33962071 L0.60511145,4.33962071 L0.60511145,4.33962071 Z M10.1095083,26.3654602 L7.39798043,18.0934307 L12.8655258,18.0934307 L10.1446317,26.3654602 L10.1095083,26.3654602 L10.1095083,26.3654602 Z" id="path134"></path>
        </g>
    </g>
</svg>