<?xml version="1.0" encoding="UTF-8"?>
<svg width="32px" height="32px" viewBox="0 0 32 32" version="1.1" xmlns="http://www.w3.org/2000/svg" xmlns:xlink="http://www.w3.org/1999/xlink">
    <!-- Generator: Sketch 52.5 (67469) - http://www.bohemiancoding.com/sketch -->
    <title>IconPay/IconPromSvyazBank</title>
    <desc>Created with Sketch.</desc>
    <g id="IconPay/IconPromSvyazBank" stroke="none" stroke-width="1" fill="none" fill-rule="evenodd">
        <path d="M31.9958727,7.80212014 C31.9958727,3.50530035 28.4803706,0 24.1710453,0 L13.1709257,0 C9.65542353,0 6.59353456,2.3745583 5.6863082,5.65371025 L19.0678971,5.65371025 C24.1710453,5.65371025 26.4391113,8.02826855 26.4391113,13.6819788 L26.4391113,26.3462898 C29.7278068,25.4416961 32.109276,22.3886926 32.109276,18.8833922 L32.109276,7.80212014 L31.9958727,7.80212014 Z" id="Shape" fill="#4D63A9"></path>
        <path d="M0.12954672,24.1978799 C0.12954672,28.4946996 3.64504888,32 7.9543741,32 L18.9544938,32 C22.4699959,32 25.5318849,29.6254417 26.4391113,26.3462898 L13.0575224,26.3462898 C7.9543741,26.3462898 5.6863082,23.9717314 5.6863082,18.3180212 L5.6863082,5.65371025 C2.39761263,6.55830389 0.0161434246,9.61130742 0.0161434246,13.1166078 L0.0161434246,24.1978799 L0.12954672,24.1978799 Z" id="Shape" fill="#D86A43"></path>
        <path d="M23.6040289,10.1766784 C23.6040289,8.70671378 22.3565926,7.91519435 20.6555432,7.91519435 L17.7070575,7.91519435 L17.7070575,11.5335689 L16.0060081,11.5335689 C13.6245389,11.5335689 13.1709257,13.1166078 13.1709257,14.0212014 C13.1709257,15.2650177 13.8513455,15.8303887 15.212185,16.5088339 C16.0060081,16.9611307 17.0266377,17.1872792 17.0266377,18.0918728 C17.0266377,18.5441696 16.5730246,19.2226148 15.5523949,19.2226148 L13.7379422,19.2226148 C13.9647488,18.770318 14.0781521,18.204947 14.0781521,17.7526502 C14.0781521,17.1872792 13.8513455,14.8127208 10.5626499,14.8127208 L7.9543741,14.8127208 L7.9543741,23.8586572 L9.76882683,23.8586572 L9.76882683,19.9010601 L10.4492466,20.5795053 L15.4389916,20.5795053 C17.7070575,20.5795053 18.8410905,19.335689 18.8410905,17.9787986 C18.8410905,17.5265018 18.7276872,17.0742049 18.6142839,16.7349823 L20.4287366,16.7349823 C23.263819,16.7349823 23.9442388,15.2650177 23.9442388,14.2473498 C23.9442388,13.3427562 23.263819,12.5512367 22.129786,12.3250883 C22.6968025,12.0989399 23.6040289,11.5335689 23.6040289,10.1766784 Z M9.76882683,19.4487633 L9.76882683,16.5088339 L10.5626499,16.5088339 C11.5832796,16.5088339 12.150296,17.1872792 12.150296,17.9787986 C12.150296,18.5441696 11.6966829,19.4487633 10.5626499,19.4487633 L9.76882683,19.4487633 Z M17.5936542,15.9434629 C17.140041,15.7173145 16.6864279,15.4911661 16.1194114,15.2650177 C15.5523949,15.0388693 14.8719751,14.6996466 14.8719751,14.0212014 C14.8719751,13.6819788 15.0987817,13.1166078 16.2328147,13.1166078 L16.9132344,13.1166078 L17.4802509,13.1166078 L18.1606707,13.1166078 L17.5936542,13.795053 L17.5936542,15.9434629 Z M20.20193,9.49823322 C21.5627696,9.49823322 21.6761728,10.4028269 21.6761728,10.6289753 C21.6761728,10.9681979 21.4493663,11.7597173 20.3153333,11.7597173 L19.4081069,11.7597173 L19.4081069,9.49823322 L20.20193,9.49823322 Z M19.4081069,15.6042403 L19.4081069,13.1166078 L20.4287366,13.1166078 C21.6761728,13.1166078 22.0163827,13.6819788 22.0163827,14.360424 C22.0163827,14.9257951 21.5627696,15.6042403 20.4287366,15.6042403 L19.4081069,15.6042403 Z" id="Shape" fill="#4D63A9"></path>
    </g>
</svg>