<?xml version="1.0" encoding="UTF-8"?>
<svg width="32px" height="32px" viewBox="0 0 32 32" version="1.1" xmlns="http://www.w3.org/2000/svg" xmlns:xlink="http://www.w3.org/1999/xlink">
    <!-- Generator: Sketch 52.5 (67469) - http://www.bohemiancoding.com/sketch -->
    <title>IconPay/IconRuStandart</title>
    <desc>Created with Sketch.</desc>
    <g id="IconPay/IconRuStandart" stroke="none" stroke-width="1" fill="none" fill-rule="evenodd">
        <g id="Group-4" transform="translate(0.959214, 0.723697)">
            <path d="M14.82107,0.370959343 C6.79889429,0.370959343 0.294354454,6.98466528 0.294354454,15.1399572 C0.294354454,23.3007449 6.79889429,29.9182979 14.82107,29.9182979 C22.8459481,29.9182979 29.3504879,23.3007449 29.3504879,15.1399572 C29.3504879,9.42207477 26.1465899,4.47196264 21.4682936,2.01751601 C21.4245156,1.97629714 21.3872233,1.94002453 21.340743,1.8971569 C21.340743,1.8971569 21.3375002,1.9191403 21.3375002,1.95266498 C20.7683867,1.65973618 20.1738712,1.40692707 19.5642226,1.19203934 C19.6112434,0.990891227 19.6733973,0.69356574 19.6982588,0.473731738 C19.7263632,0.204984671 19.51504,-0.0764028507 19.0794223,0.029667055 C18.7773003,0.0972660105 18.0028088,0.372608098 17.3250611,0.605082554 C16.5100344,0.461091283 15.6766318,0.370959343 14.82107,0.370959343 L14.82107,0.370959343 Z" id="Fill-2" fill="#534B38"></path>
            <path d="M14.82107,0.370959343 C6.79889429,0.370959343 0.294354454,6.98466528 0.294354454,15.1399572 C0.294354454,23.3007449 6.79889429,29.9182979 14.82107,29.9182979 C22.8459481,29.9182979 29.3504879,23.3007449 29.3504879,15.1399572 C29.3504879,9.42207477 26.1465899,4.47196264 21.4682936,2.01751601 C21.4245156,1.97629714 21.3872233,1.94002453 21.340743,1.8971569 C21.340743,1.8971569 21.3375002,1.9191403 21.3375002,1.95266498 C20.7683867,1.65973618 20.1738712,1.40692707 19.5642226,1.19203934 C19.6112434,0.990891227 19.6733973,0.69356574 19.6982588,0.473731738 C19.7263632,0.204984671 19.51504,-0.0764028507 19.0794223,0.029667055 C18.7773003,0.0972660105 18.0028088,0.372608098 17.3250611,0.605082554 C16.5100344,0.461091283 15.6766318,0.370959343 14.82107,0.370959343 L14.82107,0.370959343 Z" id="Stroke-3" stroke="#D9D4C8" stroke-width="0.352" stroke-linejoin="round"></path>
        </g>
        <path d="M0.959213562,16.0419522 C0.959213562,7.88651899 7.46335064,1.27240393 15.4853904,1.27240393 C23.5106781,1.27240393 30.0148152,7.88651899 30.0148152,16.0419522 C30.0148152,24.2028725 23.5106781,30.8202798 15.4853904,30.8202798 C7.46335064,30.8202798 0.959213562,24.2028725 0.959213562,16.0419522 L0.959213562,16.0419522 Z" id="Fill-20" fill="#FFFFFE"></path>
        <path d="M0.959213562,16.0419522 C0.959213562,7.88651899 7.46335064,1.27240393 15.4853904,1.27240393 C23.5106781,1.27240393 30.0148152,7.88651899 30.0148152,16.0419522 C30.0148152,24.2028725 23.5106781,30.8202798 15.4853904,30.8202798 C7.46335064,30.8202798 0.959213562,24.2028725 0.959213562,16.0419522 L0.959213562,16.0419522 Z" id="Stroke-21" stroke="#534B38" stroke-width="0.095" stroke-linejoin="round"></path>
        <path d="M21.1748187,1.46719494 C26.888607,3.65763358 30.954031,9.27255305 30.954031,15.8510021 C30.954031,24.3411467 24.1851812,31.2241282 15.8367166,31.2241282 C7.48825204,31.2241282 0.722650274,24.3411467 0.722650274,15.8510021 C0.722650274,7.36360114 7.48825204,0.48171704 15.8367166,0.48171704 C16.7358737,0.48171704 17.619332,0.561279565 18.4773476,0.714368838 L18.9997356,0.502567908 C17.9798609,0.289120857 16.9226342,0.174989786 15.8367166,0.174989786 C7.32314494,0.174989786 0.417878807,7.19240454 0.417878807,15.8510021 C0.417878807,24.5117946 7.32314494,31.5341477 15.8367166,31.5341477 C24.3535363,31.5341477 31.2560958,24.5117946 31.2560958,15.8510021 C31.2560958,9.07776204 27.0315194,3.30536364 21.1120238,1.11327888 L21.1748187,1.46719494" id="Fill-22" fill="#534B38"></path>
        <path d="M8.232046,18.783866 C8.38145439,18.5967569 8.69272187,18.3344749 9.10359495,18.1287098 C9.68823649,17.828567 11.3550062,17.6321299 12.2790646,17.6452988 C12.8263541,17.6513346 13.193379,17.9042886 13.448889,18.163827 C13.7038577,18.4228168 13.2653765,18.4612263 13.0472186,18.2741171 C12.8263541,18.090849 12.5838361,18.0277477 12.3288674,18.0277477 C12.0738988,18.0277477 11.8032314,18.1287098 11.660319,18.2362564 C11.5136173,18.3503874 11.4768065,18.5018306 11.1124882,18.6093772 C10.6713004,18.7361285 10.1608217,18.3311827 10.1608217,18.3311827 C10.518644,19.0176152 11.1341416,18.9956669 11.4768065,18.9100686 C11.7252792,18.8436751 11.8032314,18.7268005 12.1702563,18.720216 C12.7548979,18.710888 13.0098665,19.055476 13.0098665,19.055476 C12.2790646,19.0176152 11.041032,19.4829188 10.4531425,19.6124137 C9.72234058,19.7770258 9.02889075,19.7989741 9.02889075,19.7989741 C9.50093466,20.3937726 10.1981738,20.3937726 10.7113592,20.3937726 C11.2212965,20.3937726 12.8637062,20.2703135 13.8500181,20.3559118 C15.0875093,20.4601661 16.0770693,21.2859703 16.0770693,22.5101357 C16.0770693,23.7337525 15.2407071,24.401529 15.2407071,24.401529 C16.2979338,24.0695612 16.7369563,23.2152243 16.7369563,23.2152243 C17.2999445,25.4232216 16.1295787,27.1884122 15.0599013,27.9094133 C14.1704883,28.5102476 11.5011666,29.1302866 9.4516732,28.1338345 C7.18402191,27.0303846 6.32546499,25.95437 6.32546499,25.95437 C11.2559419,26.3626081 13.6665056,24.9738305 13.6665056,24.9738305 C9.21240324,25.2366612 6.10460041,24.0915095 4.0951658,23.1960196 C3.29290769,21.8994248 2.70826616,20.4821144 2.36560126,18.9418937 L2.36560126,18.9451859 C6.05209094,21.7666377 9.32121152,22.2505973 9.32121152,22.2505973 C5.3396944,20.0585125 3.3584092,17.6035971 2.04188307,15.1563636 C2.11117392,13.7264329 2.39050265,12.3897825 2.85117853,11.1074541 L2.86038122,11.0849571 C4.33768377,15.0817394 5.96168803,16.271885 5.96168803,16.271885 C4.35338248,12.5543946 4.36583318,9.89261661 4.51199356,7.88709226 C5.12803251,6.9981868 5.82797835,6.21079215 6.62752978,5.49253459 L6.63943915,5.47826821 C6.01744551,9.0465103 6.76448747,11.3653464 6.76448747,11.3653464 C6.76448747,8.54334592 8.3224489,5.18580734 9.56372949,3.47493869 C10.3508302,3.07438252 11.1097816,2.77862941 11.9715865,2.53335735 L11.9742932,2.53335735 C10.8418208,3.98084661 10.3443342,5.38498801 10.3443342,5.38498801 C12.6682843,3.13638642 16.5155504,1.78546961 17.100192,1.63347775 C17.6848335,1.48807038 19.3678432,0.855411121 19.8436765,0.746767121 C20.279451,0.640317949 20.4905715,0.921804677 20.4629635,1.19067114 C20.4256114,1.54019755 20.279451,2.12072963 20.279451,2.12072963 C21.569993,2.44062585 22.1302745,3.08535666 22.1302745,3.08535666 C22.0804717,2.91141652 22.1053731,2.614566 22.1053731,2.614566 C23.8847404,4.22447255 24.3697764,4.99156504 24.4195792,6.45112585 C24.469382,7.91233278 25.1005783,8.13565656 25.4648966,8.33319111 C25.8319216,8.53127436 26.7337853,9.05474091 27.0233993,9.30111038 C27.2410159,9.48767079 27.147365,9.69672818 27.0233993,9.8454278 C26.901599,9.9924813 26.901599,10.0429623 26.8799456,10.2152564 C26.770596,10.974667 26.4382165,11.2813942 25.9775406,11.4520421 C25.514158,11.6248848 25.0009727,11.3538235 25.0009727,11.3538235 C24.4910354,11.9233815 24.3946778,11.5519068 24.3697764,11.3307778 C24.348123,11.1074541 24.0774556,11.2813942 23.8847404,11.3538235 C23.6887773,11.4284477 23.6167797,11.156289 23.6167797,11.156289 C22.690556,11.0328299 22.2856376,11.5897676 22.2856376,11.5897676 C23.0911437,11.7006064 23.4955207,12.2569954 23.5296248,12.4803192 C23.5669769,12.7080326 23.9312952,12.5543946 23.9312952,12.5543946 C23.9312952,12.5543946 23.9653993,12.4803192 24.1148077,12.4073411 C24.2609681,12.332717 24.2983202,12.3694803 24.2609681,12.5543946 C24.223616,12.7393089 24.1862639,12.8896546 24.1862639,12.8896546 L24.590641,13.1508392 C24.4412326,14.1549731 24.0059994,14.112174 23.7851348,14.00353 C22.3819952,13.2902108 19.8783219,13.1508392 19.8783219,13.1508392 C20.0244823,12.9275154 20.3758086,12.641639 20.3758086,12.641639 C13.9490823,12.641639 12.8637062,13.4356182 12.5340333,13.8548304 C12.307214,14.1456451 12.5026359,14.5961336 12.5026359,14.5961336 C11.7377299,14.7448333 9.79704477,15.2430593 9.05325082,15.936625 C8.33814761,16.6011093 8.09887765,18.1605348 8.07343491,18.7361285 C8.06748023,18.8562953 8.18278453,18.8530031 8.232046,18.783866 L8.232046,18.783866 Z M19.4268487,1.94514337 C19.4988463,1.86338601 19.4268487,1.79644375 19.2341336,1.92154896 C19.0381704,2.04336193 18.1796135,2.5684746 17.6009266,3.5539525 C17.5300117,3.67850901 17.5733185,3.863972 17.8807967,3.75642541 C18.2575657,3.62144347 18.646244,3.5539525 18.8173058,3.52871198 C18.9889089,3.50292275 18.9889089,3.38110978 18.8671086,3.33392097 C18.7458496,3.2817938 18.7177002,3.23405628 18.770751,3.03487561 C18.8173058,2.83734107 19.1594294,2.26668571 19.4268487,1.94514337 L19.4268487,1.94514337 Z M17.8190845,4.6162494 C16.5529025,5.65879284 14.4687637,8.15156907 13.4856998,10.4874151 C13.4115369,10.6613552 13.4856998,10.6882419 13.7287591,10.5378961 C13.9739837,10.3875504 14.6804256,10.0429623 15.0193012,9.94309766 C15.0193012,9.94309766 14.6522762,11.2369489 14.5310172,11.9502681 C14.4346596,12.5373847 14.9137409,12.4912933 15.2125577,12.4216075 C15.5113744,12.3535678 16.7488657,12.2981484 16.9664823,12.2712618 C16.9664823,12.2712618 15.8221006,11.9980056 15.7008416,11.5266663 C15.5795826,11.0586191 15.9060075,10.0111373 16.1393228,9.30111038 C16.1891256,9.14911852 16.1144214,8.9296357 15.8719034,9.02565943 C15.6261374,9.12442671 15.2872619,9.19850216 15.1162001,9.30111038 C15.1162001,9.30111038 16.1891256,6.62506599 17.8439859,4.69251968 L17.8190845,4.6162494 L23.4955207,5.80913857 C23.3710138,6.78473975 23.0196875,6.69804403 22.8610764,6.65030652 C22.690556,6.59982547 22.6434598,6.52684742 22.1302745,6.47801249 C21.9684154,6.46209999 21.2192081,6.37705039 21.6197958,6.69804403 C22.2639842,7.22151058 22.8112736,8.28435618 22.8112736,8.28435618 C22.8859778,7.93812202 22.711668,7.44318824 22.6185584,7.27034551 C22.5222009,7.09475924 22.6434598,7.04757044 22.7614708,7.07116484 C22.8859778,7.09475924 22.9547273,7.14249676 23.1782986,7.27034551 C23.3964565,7.39215848 23.5426169,7.3702102 23.5924197,7.07116484 C23.6324784,6.81327252 23.6200277,6.28706243 23.5702249,5.81078469 C23.5637289,5.77566744 23.5079714,5.75865752 23.4955207,5.80913857 L17.8190845,4.6162494 L17.8190845,4.6162494 Z" id="Fill-23" fill="#534B38"></path>
        <path d="M25.0987158,25.7535187 C24.5259837,23.8050599 22.9458275,22.5622384 22.0688652,21.4834802 C21.7110429,21.0439659 21.1821589,20.4266704 21.1821589,20.4266704 C21.6958856,20.7240697 22.6697468,20.8727693 22.6697468,20.8727693 C22.4017861,20.6483481 21.7917018,19.9081422 21.5491838,19.6074508 C20.8714327,18.7821953 19.6956536,17.8581726 18.821398,17.456519 C17.1042842,16.6658321 15.3162555,16.5643213 15.0731962,16.5171325 C14.8274302,16.4666515 14.3174929,16.5643213 14.631467,16.0677414 C14.9486892,15.572259 16.7995127,14.1121494 16.7995127,14.1121494 C16.4113757,14.1121494 14.7061712,14.2641413 14.1929859,14.3354732 C13.6830485,14.4111948 13.5644962,14.2372546 13.5368881,13.8926666 C13.5368881,13.8926666 12.5099761,14.8748523 13.0020494,15.3758218 C13.0767536,15.450446 13.2943702,15.4756865 13.5644962,15.3522274 C13.8292089,15.2271222 14.3640476,15.0537308 14.5600108,15.0312338 C14.5600108,15.0312338 14.1215297,15.7231534 14.0251721,16.0205526 C13.9282732,16.3179519 13.9039131,16.4666515 14.3640476,16.6153511 C14.8274302,16.7607585 17.1665377,17.5075488 18.6010748,18.4974164 C20.0372359,19.4872839 21.5242824,20.7526024 22.6226507,23.0774743 C23.7172295,25.4089306 23.1141826,27.1741213 22.9431208,27.4962123 C23.7302216,26.9875609 24.4447835,26.4053827 25.1111665,25.7441907 L25.0987158,25.7535187" id="Fill-24" fill="#534B38"></path>
        <g id="Group-7" transform="translate(-0.123456, 0.174990)">
            <path d="M15.9037395,31.3716219 C24.420444,31.3716219 31.3233092,24.3495743 31.3233092,15.6886642 C31.3233092,8.91612822 27.0990065,3.14328734 21.1792537,0.951542345 L21.2414076,1.30547509 C26.9557823,3.49612091 31.0211873,9.11068131 31.0211873,15.6886642 C31.0211873,24.1786534 24.2523583,31.061656 15.9037395,31.061656 C7.55512075,31.061656 0.788994106,24.1786534 0.788994106,15.6886642 C0.788994106,7.20142301 7.55512075,0.320069176 15.9037395,0.320069176 C16.8025388,0.320069176 17.686205,0.399209416 18.5444692,0.552543633 L19.0665619,0.340953406 C18.0466976,0.127164839 16.9890005,0.0134007436 15.9037395,0.0134007436 C7.38973735,0.0134007436 0.484169805,7.03050207 0.484169805,15.6886642 C0.484169805,24.3495743 7.38973735,31.3716219 15.9037395,31.3716219 L15.9037395,31.3716219 Z" id="Fill-5" fill="#534B38"></path>
            <path d="M15.9037395,31.3716219 C24.420444,31.3716219 31.3233092,24.3495743 31.3233092,15.6886642 C31.3233092,8.91612822 27.0990065,3.14328734 21.1792537,0.951542345 L21.2414076,1.30547509 C26.9557823,3.49612091 31.0211873,9.11068131 31.0211873,15.6886642 C31.0211873,24.1786534 24.2523583,31.061656 15.9037395,31.061656 C7.55512075,31.061656 0.788994106,24.1786534 0.788994106,15.6886642 C0.788994106,7.20142301 7.55512075,0.320069176 15.9037395,0.320069176 C16.8025388,0.320069176 17.686205,0.399209416 18.5444692,0.552543633 L19.0665619,0.340953406 C18.0466976,0.127164839 16.9890005,0.0134007436 15.9037395,0.0134007436 C7.38973735,0.0134007436 0.484169805,7.03050207 0.484169805,15.6886642 C0.484169805,24.3495743 7.38973735,31.3716219 15.9037395,31.3716219 L15.9037395,31.3716219 Z" id="Stroke-6" stroke="#D9D4C8" stroke-width="0.352" stroke-linejoin="round"></path>
        </g>
        <path d="M28.4292457,20.5934774 C27.0206927,19.4296697 24.5473342,17.3511673 21.5299343,16.636202 C21.5299343,16.636202 25.8351696,18.3854801 27.3714776,22.7888544 C27.7888467,22.0898016 28.1369249,21.3655082 28.4292457,20.5934774" id="Fill-25" fill="#534B38"></path>
        <path d="M19.8555859,28.9140714 C20.3162617,27.8232418 20.8229511,25.2289547 20.2881123,23.2206868 C20.2881123,23.2206868 20.3871766,27.9461521 17.1992562,29.5055776 C18.0951652,29.3985798 19.0159756,29.1955582 19.8490898,28.9173637 L19.8555859,28.9140714" id="Fill-26" fill="#534B38"></path>
        <path d="M29.0452847,15.4861119 C28.6317049,15.3160127 26.0841835,14.5818427 26.0841835,14.5818427 C26.9367858,14.5346539 27.278368,13.8926666 27.278368,13.8926666 C26.4761099,14.1121494 25.257024,14.2120141 24.236608,14.0633145 C24.236608,14.0633145 26.5973689,15.1025657 28.9494684,17.3714694 L28.9494684,17.3489725 C29.0111806,16.8019115 29.0485327,16.2416816 29.0485327,15.6693801 C29.0485327,15.5996943 29.0485327,15.5618335 29.0452847,15.4861119" id="Fill-27" fill="#534B38"></path>
    </g>
</svg>