<?xml version="1.0" encoding="UTF-8"?>
<svg width="32px" height="32px" viewBox="0 0 32 32" version="1.1" xmlns="http://www.w3.org/2000/svg" xmlns:xlink="http://www.w3.org/1999/xlink">
    <!-- Generator: Sketch 52.5 (67469) - http://www.bohemiancoding.com/sketch -->
    <title>IconPay/IconVTB24</title>
    <desc>Created with Sketch.</desc>
    <g id="IconPay/IconVTB24" stroke="none" stroke-width="1" fill="none" fill-rule="evenodd">
        <path d="M24.1401018,16.0130295 L4.35361696,16.0130295 C4.35361696,16.0130295 4.95026386,17.9262597 5.64217998,18.905478 L23.2468127,18.905478 C23.2468127,18.905478 26.6066408,21.5390184 28.2138888,26.1425769 L9.70924205,26.1425769 C6.51641526,23.5385513 4.12534442,20.0188203 2.86965862,16.0130295 C3.02881427,15.5224863 3.20552935,15.0409097 3.39905665,14.567926 L24.1307617,14.567926 C25.7473497,13.4441227 27.3538505,11.6751039 27.3538505,11.6751039 L4.84939056,11.6751039 C5.14790081,11.1797039 5.4654649,10.6981273 5.80208285,10.2307477 L28.5307056,10.2307477 C29.130715,9.50333909 30.3363377,7.33792556 30.3363377,7.33792556 L8.30897119,7.33792556 C8.83836921,6.82758138 9.39391958,6.34563116 9.97375426,5.89282212 L31.0121889,5.89282212 C31.5886611,4.5116051 32,3 32,3 L9.1473404,3 C4.78064727,6.1083921 1.488068,10.6626348 0,16.0130295 C1.47536543,21.3036473 4.73768272,25.8941297 9.13650586,29.031663 L31.9402232,29.031663 C31.9402232,29.031663 31.5393453,22.1083921 24.1401018,16.0130295 L24.1401018,16.0130295 Z" id="Shape" fill="#0A2972"></path>
    </g>
</svg>