<svg xmlns="http://www.w3.org/2000/svg" width="16" height="16" viewBox="0 0 16 16">
    <g fill="none" fill-rule="evenodd" transform="translate(-405 -537)">
        <rect width="247" height="511" x="395.5" y="61.5" stroke="#999" rx="1"/>
        <path fill="#002987" d="M418.75 541.134c.027-.22.041-.445.041-.672 0-1.912-1.507-3.462-3.365-3.462h-5.623a.73.73 0 0 0-.715.622l-2.072 12.67c-.074.455.266.87.715.87h2.056a.736.736 0 0 0 .72-.622l.01-.059-.287 1.753c-.065.4.235.766.63.766h1.8a.644.644 0 0 0 .629-.548l.511-3.126a1.097 1.097 0 0 1 1.073-.933h.472c2.568 0 4.65-2.141 4.65-4.783a3.06 3.06 0 0 0-1.244-2.476z"/>
        <path fill="#0085CC" d="M418.75 541.134c-.32 2.693-2.552 4.778-5.256 4.778h-1.57a.79.79 0 0 0-.756.586l-.938 5.736c-.065.4.235.766.63.766h1.8a.644.644 0 0 0 .629-.548l.511-3.126a1.097 1.097 0 0 1 1.073-.933h.472c2.568 0 4.65-2.141 4.65-4.783a3.06 3.06 0 0 0-1.244-2.476z"/>
        <path fill="#00186A" d="M411.924 545.912h1.57c2.704 0 4.935-2.085 5.257-4.778a2.883 2.883 0 0 0-1.71-.562h-4.096a.963.963 0 0 0-.942.82l-.835 5.106a.79.79 0 0 1 .756-.586z"/>
    </g>
</svg>
