<svg xmlns="http://www.w3.org/2000/svg" width="16" height="16" viewBox="0 0 16 16">
    <g fill="none" fill-rule="evenodd" transform="translate(-408 -171)">
        <rect width="247" height="511" x="395.5" y="61.5" stroke="#999" rx="1"/>
        <path d="M408 171h16v16h-16z"/>
        <path fill="#F90" d="M421.102 184.49a4.538 4.538 0 0 0-.903-.387c-.656-.213-1.291-.262-2.032-.388-.601-.103-1.077-.35-1.587-.696a2.639 2.639 0 0 1-.665-.694c-.033-.053-.203-.26-.186-.33 0 0-.118.472.116 1.136-2.154-.096-4.042-1.29-4.906-2.735-1.592-2.662-1.031-5.887 1.091-7.311 2.122-1.425 5.357-.42 7.09 2.152 1.086 1.614 1.364 3.492.899 5.019-.932-.634-1.772-.293-1.772-.293.922-.095 1.651.638 1.651.638.107.096.21.2.304.318l.063.088c.241.327.392.692.456 1.061 1.831-2.32 2.134-5.534.513-8.03-2.063-3.182-6.464-3.994-9.826-1.817-3.363 2.178-4.416 6.52-2.35 9.702 1.695 2.617 5.674 3.415 7.955 2.694.863-.271 3.815-.529 5.87 1.896 0 0 .178.203.275.434 0 0 .028.081.105.042.02-.01.076-.076-.118-.467-.435-.885-1.207-1.534-2.043-2.032zm-2.196-2.267c-.005 0-.008-.002-.011-.003l-.014-.005-.009-.001-.023-.008a.372.372 0 0 0-.268.049c-.179.121-.206.395-.06.613a.557.557 0 0 0 .266.208l.01.003c.004.002.009.002.013.003.004 0 .006.002.009.003.008.002.014.005.022.005.095.02.19.006.27-.048.179-.12.206-.393.06-.61a.526.526 0 0 0-.258-.205l-.007-.004zm1.073-.261c.084.271.198.479.281.52.08.048.175-.063.114-.335-.026-.117-.115-.363-.269-.423-.15-.056-.164.122-.126.238z"/>
    </g>
</svg>
