<svg xmlns="http://www.w3.org/2000/svg" width="16" height="16" viewBox="0 0 16 16">
    <g fill="none" fill-rule="evenodd" transform="translate(-406 -361)">
        <rect width="247" height="511" x="395.5" y="61.5" stroke="#999" rx="1"/>
        <path fill="#E21836" d="M409.128 364h3.986c.556 0 .902.454.772 1.012l-1.855 7.968c-.131.556-.688 1.01-1.245 1.01H406.8c-.556 0-.903-.454-.773-1.01l1.857-7.968c.13-.558.686-1.012 1.244-1.012"/>
        <path fill="#00447C" d="M412.782 364h4.584c.556 0 .306.454.175 1.012l-1.856 7.968c-.13.556-.09 1.01-.647 1.01h-4.584c-.557 0-.902-.454-.772-1.01l1.856-7.968c.132-.558.687-1.012 1.244-1.012"/>
        <path fill="#007B84" d="M417.184 364h3.986c.558 0 .904.454.773 1.012l-1.856 7.968c-.13.556-.688 1.01-1.245 1.01h-3.985c-.557 0-.903-.454-.772-1.01l1.856-7.968c.13-.558.686-1.012 1.243-1.012"/>
        <path fill="#FEFEFE" fill-rule="nonzero" d="M410.169 366.554c-.41.004-.531 0-.57-.01l-.292 1.348c-.06.258-.103.442-.25.561a.446.446 0 0 1-.295.102c-.181 0-.287-.09-.305-.261l-.003-.059.055-.347s.29-1.163.342-1.317a.112.112 0 0 0 .004-.017c-.565.004-.665 0-.672-.01l-.017.085-.297 1.31-.025.112-.05.363c0 .108.022.196.064.27.135.237.52.272.738.272.28 0 .544-.06.722-.169.31-.182.39-.468.462-.721l.033-.13s.3-1.208.35-1.365c.002-.009.003-.013.006-.017zm1.017.974a.79.79 0 0 0-.322.075c-.043.022-.084.048-.126.073l.038-.14-.02-.023c-.252.05-.308.058-.54.09l-.02.013c-.026.223-.05.391-.15.83a52.02 52.02 0 0 1-.117.486l.01.02c.238-.012.31-.012.517-.009l.017-.018c.026-.134.03-.166.087-.438.028-.129.085-.412.113-.513a.385.385 0 0 1 .15-.048c.116 0 .102.101.098.141a5.064 5.064 0 0 1-.09.478l-.03.122-.062.268.01.018c.233-.013.305-.013.505-.01l.023-.018c.036-.21.047-.266.111-.571l.032-.14c.063-.276.094-.415.047-.528-.05-.128-.17-.158-.28-.158zm1.137.287c-.125.024-.204.04-.283.05-.078.013-.154.024-.275.041l-.01.009-.008.007c-.012.09-.021.167-.038.258a4.729 4.729 0 0 1-.07.355 1.394 1.394 0 0 1-.058.2c-.015.041-.032.081-.062.197l.007.01.006.01c.112-.005.186-.009.261-.01.076-.002.154 0 .275.001l.01-.008.012-.01c.018-.104.02-.132.031-.183.01-.055.029-.13.074-.332.02-.095.044-.19.066-.286l.07-.286-.004-.012-.004-.01zm.003-.387c-.114-.067-.312-.046-.446.046-.133.09-.148.219-.035.286.11.065.31.046.443-.047.132-.092.149-.22.038-.285zm.683 1.545c.23 0 .464-.063.64-.25.136-.152.198-.377.22-.47.07-.308.016-.452-.053-.54-.104-.134-.289-.176-.48-.176-.115 0-.39.01-.603.208-.154.143-.225.336-.268.52-.043.19-.093.53.22.656a.915.915 0 0 0 .324.052zm-.017-.693c.052-.233.115-.43.274-.43.124 0 .133.146.078.38-.01.053-.056.246-.117.328-.043.06-.094.098-.15.098-.017 0-.116 0-.118-.148 0-.073.014-.147.033-.228zm1.449.663l.018-.018c.025-.134.03-.166.086-.438.028-.129.086-.412.113-.513.052-.024.102-.048.152-.048.115 0 .1.101.096.141a4.59 4.59 0 0 1-.09.478l-.027.122c-.021.09-.044.178-.064.268l.009.018c.235-.013.303-.013.504-.01l.025-.018c.035-.21.044-.266.11-.571l.032-.14c.063-.276.095-.415.048-.528-.051-.128-.172-.158-.281-.158a.786.786 0 0 0-.448.148l.036-.14-.02-.023c-.25.05-.308.058-.54.09l-.017.013c-.028.223-.051.391-.15.83l-.118.486.011.02c.238-.012.309-.012.515-.009zm1.726.01l.103-.5s.075-.313.08-.325c0 0 .023-.032.047-.045h.034c.327 0 .695 0 .984-.213.197-.146.33-.36.39-.622a.94.94 0 0 0 .028-.217c0-.1-.02-.2-.078-.277-.148-.206-.44-.21-.78-.211l-.166.001a7.713 7.713 0 0 1-.68-.005c-.005.032-.017.088-.017.088l-.155.72-.389 1.603a7.71 7.71 0 0 1 .6.002zm.288-1.279l.164-.715.005-.037.003-.028.066.007.348.03c.135.052.19.186.151.36a.525.525 0 0 1-.272.36c-.11.055-.244.06-.382.06h-.09l.007-.037zm1.028.62c-.044.185-.094.525.217.646.099.042.188.055.278.05a.46.46 0 0 0 .265-.122l-.022.085.014.018c.224-.009.293-.009.535-.007l.022-.017c.036-.208.069-.41.16-.807l.136-.57-.007-.02c-.25.046-.317.056-.557.09l-.019.015-.007.056a.344.344 0 0 0-.175-.144c-.107-.042-.358.012-.574.209-.152.14-.225.333-.266.517zm.525.01c.053-.229.115-.422.274-.422.101 0 .154.093.143.251a8.07 8.07 0 0 1-.029.128c-.015.069-.033.136-.05.204a.493.493 0 0 1-.058.119c-.041.058-.139.094-.195.094-.016 0-.114 0-.118-.145 0-.072.014-.147.033-.228zm2.743-.756l-.02-.022c-.247.05-.292.058-.52.089l-.016.016-.003.011v-.004c-.17.39-.165.306-.302.614l-.002-.038-.034-.666-.022-.022c-.26.05-.265.058-.505.089l-.019.016-.004.027.002.003c.03.153.023.119.053.36.014.119.032.238.046.355.024.195.037.292.066.59-.162.267-.2.368-.356.603l.001.002-.11.173c-.012.018-.023.031-.04.036a.165.165 0 0 1-.07.01h-.062l-.09.3.31.006c.182 0 .296-.086.357-.2l.195-.334h-.003l.02-.023c.131-.282 1.128-1.991 1.128-1.991zm-3.268 3.943h-.132l.486-1.608H418l.05-.166.006.184c-.006.114.083.215.319.198h.272l.094-.31h-.103c-.059 0-.086-.014-.083-.046l-.005-.187h-.504c-.163.004-.65.016-.748.042-.119.031-.244.122-.244.122l.049-.166h-.472l-.098.329-.492 1.632h-.096l-.094.308h.94l-.032.102h.462l.031-.102h.13l.102-.332zm-.386-1.281c-.075.02-.216.084-.216.084l.125-.411h.375l-.09.3s-.116.006-.194.027zm.008.587s-.118.014-.196.032c-.076.023-.219.096-.219.096l.13-.428h.376l-.091.3zm-.21.698h-.376l.109-.361h.374l-.107.36zm.904-.998h.542l-.078.252h-.549l-.082.276h.48l-.363.512a.15.15 0 0 1-.074.061.216.216 0 0 1-.098.028h-.133l-.091.302h.348a.424.424 0 0 0 .367-.19l.25-.342.053.347a.163.163 0 0 0 .09.117c.035.018.07.048.121.052.055.003.095.005.12.005h.172l.103-.338h-.068c-.039 0-.105-.007-.117-.019-.011-.015-.011-.037-.017-.072l-.054-.347h-.223l.098-.116h.547l.085-.276h-.507l.079-.252h.505l.094-.31h-1.507l-.093.31zm-4.574 1.068l.127-.42h.52l.094-.313h-.52l.08-.26h.508l.094-.302h-1.272l-.092.303h.29l-.078.259h-.29l-.096.318h.29l-.17.556c-.022.074.011.102.033.136a.14.14 0 0 0 .093.068.56.56 0 0 0 .133.018h.585l.105-.346-.26.035c-.05 0-.189-.006-.174-.052zm.06-2.013l-.132.238a.276.276 0 0 1-.076.099c-.02.012-.06.018-.118.018h-.068l-.092.304h.228c.11 0 .194-.04.234-.06.043-.023.055-.01.088-.042l.077-.067h.713l.094-.317h-.521l.09-.173h-.517zm1.052 2.019c-.012-.018-.004-.048.015-.112l.195-.645h.692c.101-.001.174-.003.221-.006a.453.453 0 0 0 .167-.056.312.312 0 0 0 .121-.112.951.951 0 0 0 .12-.27l.244-.816-.718.004s-.222.033-.32.069c-.097.04-.238.152-.238.152l.065-.223h-.444l-.622 2.061c-.022.08-.037.138-.04.173-.001.038.047.075.079.103.037.028.092.024.145.028.055.004.134.007.243.007h.341l.105-.354-.305.03a.08.08 0 0 1-.066-.033zm.335-1.192h.728l-.047.145c-.006.003-.022-.007-.096.001h-.63l.045-.146zm.146-.486h.734l-.053.174s-.346-.003-.401.007c-.244.042-.386.172-.386.172l.106-.353zm.552 1.116a.078.078 0 0 1-.03.045c-.014.01-.038.013-.073.013h-.104l.006-.177h-.431l-.018.863c0 .063.006.099.051.128.046.036.186.04.375.04h.27l.098-.323-.235.013-.079.005c-.01-.005-.02-.01-.032-.02-.01-.01-.026-.004-.024-.067l.002-.22.247-.011a.32.32 0 0 0 .239-.085c.046-.04.061-.085.079-.146l.04-.196h-.338l-.043.138z"/>
    </g>
</svg>
