<svg xmlns="http://www.w3.org/2000/svg" width="16" height="16" viewBox="0 0 16 16">
    <g fill="none" fill-rule="evenodd" transform="translate(-406 -74)">
        <rect width="247" height="511" x="395.5" y="61.5" stroke="#999" rx="1"/>
        <g fill="#0070BA">
            <path d="M413.894 74.03c1.238 0 2.415.29 3.472.808.166.076.332.168.498.26l-.724.654-1.087-1.142-1.872 1.676-1.102-1.204-3.441 3.124 2.204 2.453-.86.762 2.173 2.453-.86.762 3.109 3.49 1.841-1.707 1.6 1.829a8.913 8.913 0 0 1-1.041.7 7.829 7.829 0 0 1-3.895 1.037c-4.362 0-7.909-3.581-7.909-7.985-.015-4.373 3.532-7.97 7.894-7.97z"/>
            <path d="M412.445 81.512l1.887-1.706 1.69 1.904-1.886 1.707zM413.789 84.804l1.871-1.722 1.706 1.905-1.887 1.706zM411.102 78.267l1.887-1.707 1.69 1.905-1.887 1.706zM414.558 77.352l1.404-1.28 1.268 1.418-1.404 1.295zM417.064 83.219l1.404-1.28 1.268 1.432-1.404 1.28zM418.302 86.099l1.404-1.28 1.268 1.417-1.404 1.295zM418.875 79.516l.936-.853.846.945-.936.853zM417.668 76.697l.936-.868.845.96-.936.853zM420.068 82.335l.936-.853.86.945-.95.853zM415.857 80.217l1.403-1.28 1.268 1.417-1.403 1.28z"/>
        </g>
    </g>
</svg>
